<svg width="1024" height="988" viewBox="0 0 1024 988" fill="none" xmlns="http://www.w3.org/2000/svg">
<circle cx="512" cy="476" r="512" fill="white"/>
<path d="M493.824 458.49C493.824 435.91 485.939 417.99 470.17 404.73C454.4 391.11 434.33 384.301 409.958 384.301C396.698 384.301 383.974 385.376 371.789 387.526C359.962 389.677 348.134 394.694 336.307 402.579C324.48 410.464 311.936 423.008 298.675 440.211V245.6H324.48V385.914C331.648 377.312 341.862 370.682 355.123 366.022C368.384 361.005 386.662 358.496 409.958 358.496C431.821 358.496 450.816 362.797 466.944 371.398C483.43 379.642 496.333 391.29 505.651 406.342C514.97 421.037 519.629 438.419 519.629 458.49V511.328H493.824V458.49ZM230.4 245.6H256.205V664.928H230.4V245.6ZM425.011 485.907C425.011 470.854 421.069 459.386 413.184 451.501C405.299 443.258 395.085 439.136 382.541 439.136C369.28 439.136 357.274 442.72 346.522 449.888C335.77 457.056 328.422 467.27 324.48 480.531V664.928H298.675V477.306C304.768 456.16 315.341 440.211 330.394 429.459C345.805 418.707 363.187 413.331 382.541 413.331C402.611 413.331 418.918 419.603 431.462 432.147C444.365 444.333 450.816 462.253 450.816 485.907V664.928H425.011V485.907Z" fill="black"/>
<path d="M493.439 450.4H519.243V716.128H493.439V450.4ZM636.978 534.419L735.896 416.685H769.765L668.696 537.107L782.668 716.128H752.024L636.978 534.419ZM605.797 599.469L583.755 627.962V716.128H557.951V619.36L610.636 558.074L708.479 716.128H678.373L605.797 599.469Z" fill="black"/>
<path d="M586.981 474.208C586.623 487.827 586.085 498.938 585.368 507.539L584.293 520.442L594.507 507.539C600.242 498.579 609.56 486.394 622.463 470.982L667.084 416.685H699.877L562.251 576.352V450.4H588.056L586.981 474.208Z" fill="black"/>
</svg>
